<?xml version="1.0" encoding="utf-8"?><svg version="1.1" id="Layer_1" xmlns="http://www.w3.org/2000/svg" xmlns:xlink="http://www.w3.org/1999/xlink" x="0px" y="0px" viewBox="0 0 122.88 113.29" style="enable-background:new 0 0 122.88 113.29" xml:space="preserve"><style type="text/css">.st0{fill-rule:evenodd;clip-rule:evenodd;}</style><g><path class="st0" d="M72.17,60.87l38-6.11c3.37-0.54,6.58,1.77,7.12,5.15l5.51,34.24c0.54,3.37-1.78,6.58-5.15,7.12l-38,6.11 c-3.37,0.54-6.58-1.78-7.12-5.15l-5.51-34.24C66.48,64.62,68.8,61.41,72.17,60.87L72.17,60.87z M17.77,56.97l36.92,10.88 c3.28,0.97,5.17,4.44,4.2,7.72l-9.8,33.26c-0.97,3.28-4.44,5.17-7.72,4.2L4.46,102.16c-3.28-0.97-5.17-4.44-4.2-7.72l9.8-33.26 C11.02,57.9,14.49,56.01,17.77,56.97L17.77,56.97z M35.25,90.91l5.95,4.54c-1.16,1.71-2.46,3.02-3.9,3.91c-1.44,0.9-3,1.4-4.68,1.5 c-1.68,0.1-3.62-0.26-5.84-1.1c-2.7-1.01-4.75-2.23-6.17-3.65c-1.41-1.42-2.36-3.35-2.86-5.79c-0.5-2.43-0.18-5.19,0.98-8.26 c1.54-4.09,3.81-6.83,6.81-8.21c3.01-1.38,6.51-1.32,10.5,0.18c3.12,1.17,5.34,2.72,6.65,4.66c1.31,1.93,1.91,4.37,1.79,7.31 l-7.3-1.04c0.05-0.84,0-1.48-0.13-1.92c-0.21-0.74-0.57-1.39-1.07-1.93c-0.5-0.55-1.14-0.97-1.9-1.25 c-1.74-0.65-3.33-0.46-4.78,0.59c-1.08,0.77-2.05,2.26-2.88,4.47c-1.03,2.74-1.32,4.77-0.87,6.11c0.45,1.33,1.43,2.28,2.94,2.84 c1.46,0.55,2.72,0.56,3.78,0.01C33.34,93.33,34.33,92.34,35.25,90.91L35.25,90.91z M36.49,6.19l38-6.11 c3.37-0.54,6.58,1.77,7.12,5.15l5.51,34.24c0.54,3.37-1.77,6.58-5.15,7.12l-38,6.11c-3.37,0.54-6.58-1.78-7.12-5.15l-5.51-34.24 C30.8,9.94,33.12,6.73,36.49,6.19L36.49,6.19z M64.11,33.29l-9.15,1.45l-0.63,4.51l-8.24,1.31l5.68-27.69l8.84-1.4l13.94,24.57 l-8.45,1.34L64.11,33.29L64.11,33.29z M61.5,27.91l-4.34-8.94l-1.37,9.84L61.5,27.91L61.5,27.91z M83.13,70.92l15.12-2.4 c2.52-0.4,4.55-0.08,6.1,0.95c1.55,1.03,2.47,2.47,2.76,4.31c0.25,1.54-0.02,2.95-0.82,4.2c-0.52,0.84-1.37,1.57-2.54,2.2 c1.95,0.15,3.45,0.71,4.51,1.67c1.06,0.96,1.72,2.27,1.98,3.93c0.22,1.36,0.09,2.62-0.36,3.8c-0.46,1.18-1.19,2.17-2.18,2.98 c-0.62,0.5-1.6,0.95-2.94,1.34c-1.78,0.53-2.97,0.84-3.56,0.93l-13.94,2.21L83.13,70.92L83.13,70.92z M92.9,79.88l3.52-0.56 c1.26-0.2,2.11-0.56,2.53-1.07c0.42-0.52,0.57-1.18,0.44-2c-0.12-0.76-0.46-1.32-1.02-1.66c-0.56-0.35-1.46-0.43-2.68-0.24 l-3.58,0.57L92.9,79.88L92.9,79.88z M94.53,90.13l4.12-0.65c1.39-0.22,2.33-0.63,2.83-1.21c0.49-0.58,0.67-1.29,0.54-2.12 c-0.12-0.77-0.5-1.35-1.14-1.73c-0.64-0.38-1.67-0.46-3.09-0.23l-4.1,0.65L94.53,90.13L94.53,90.13z"/></g></svg>