<?xml version="1.0" encoding="UTF-8" standalone="no" ?>
<!DOCTYPE svg PUBLIC "-//W3C//DTD SVG 1.1//EN" "http://www.w3.org/Graphics/SVG/1.1/DTD/svg11.dtd">
<svg xmlns="http://www.w3.org/2000/svg" xmlns:xlink="http://www.w3.org/1999/xlink" version="1.1" width="120" height="120" viewBox="0 0 120 120" xml:space="preserve">
<desc>Created with Fabric.js 4.6.0</desc>
<defs>
</defs>
<g transform="matrix(1 0 0 1 60 60)" id="uGAccl_8YRZ6MGNFYn1Ty"  >
<path style="stroke: none; stroke-width: 1; stroke-dasharray: none; stroke-linecap: butt; stroke-dashoffset: 0; stroke-linejoin: miter; stroke-miterlimit: 4; fill: rgb(0,0,0); fill-rule: evenodd; opacity: 1;" vector-effect="non-scaling-stroke"  transform=" translate(-53.5, -49.32)" d="M 62.84227 53.00543 L 95.93354 47.68477 C 98.86815999999999 47.2145 101.66356999999999 49.22612 102.13373999999999 52.16955 L 106.93200999999999 81.98652 C 107.40227999999999 84.92114 105.38199999999999 87.71655 102.44722999999999 88.18674 L 69.35595999999998 93.5074 C 66.42133999999999 93.97767 63.62592999999998 91.95739 63.15575999999998 89.02262 L 58.35748999999998 59.205650000000006 C 57.88721999999998 56.27103 59.90749999999998 53.475620000000006 62.84226999999998 53.005430000000004 z M 15.46955 49.60922 L 47.62034 59.08372 C 50.4767 59.92848 52.12243 62.95021 51.27782 65.80645 L 42.743809999999996 94.77002999999999 C 41.899049999999995 97.62638999999999 38.87734 99.27211999999999 36.02108 98.42751 L 3.879019999999997 88.96166 C 1.022659999999997 88.1169 -0.6230700000000029 85.09517 0.22153999999999696 82.23893 L 8.755549999999998 53.275349999999996 C 9.591579999999997 50.418989999999994 12.613339999999997 48.77325999999999 15.469549999999998 49.60914 z M 30.69152 79.16496 L 35.87297 83.11846999999999 C 34.86281 84.60752999999998 33.730740000000004 85.74832999999998 32.47676 86.52340999999998 C 31.22279 87.30718999999998 29.86434 87.74261999999999 28.401339999999998 87.82960999999999 C 26.938319999999997 87.91675 25.248939999999997 87.60325999999999 23.315759999999997 86.87167 C 20.96448 85.99213999999999 19.179389999999998 84.92975 17.942739999999997 83.69319999999999 C 16.714909999999996 82.45667999999999 15.887649999999997 80.77588999999999 15.452249999999998 78.65110999999999 C 15.016849999999998 76.53505999999999 15.295489999999997 74.13156 16.30559 71.45805999999999 C 17.6467 67.89644999999999 19.62339 65.51037999999998 22.23593 64.30865999999999 C 24.85706 63.10690999999999 27.905 63.15912999999999 31.37962 64.46542 C 34.09662 65.48431 36.0298 66.83400999999999 37.1706 68.52344 C 38.3114 70.20409 38.83392 72.32893 38.72934 74.88918 L 32.37233 73.98346 C 32.41582 73.25201999999999 32.37233 72.69462999999999 32.25915 72.31154 C 32.07629 71.66708999999999 31.7628 71.10105999999999 31.327399999999997 70.63089 C 30.891999999999996 70.15199999999999 30.33469 69.78613 29.67279 69.54231999999999 C 28.15755 68.97628999999999 26.77294 69.14168999999998 25.51023 70.05613 C 24.56975 70.72661 23.72499 72.02423 23.00228 73.94869 C 22.10529 76.33473 21.85275 78.10252 22.24466 79.26935 C 22.63656 80.42761 23.48991 81.25476 24.80483 81.74253 C 26.076259999999998 82.22142000000001 27.17342 82.23015000000001 28.09659 81.75126 C 29.02834 81.27237 29.890459999999997 80.41015 30.691679999999998 79.1649 z M 31.77135 5.38887 L 64.86262 0.06820999999999966 C 67.79724 -0.40206000000000036 70.59265 1.6095599999999997 71.06282 4.552989999999999 L 75.86109 34.36996 C 76.33136 37.30458 74.31975 40.09999 71.37631 40.57018 L 38.28504 45.89084 C 35.35042 46.36111 32.55501 44.34083 32.08484 41.40606 L 27.28657 11.589089999999995 C 26.816300000000002 8.654469999999996 28.83658 5.859059999999995 31.77135 5.388869999999995 z M 55.82346 28.98816 L 47.85548 30.25086 L 47.3069 34.17832 L 40.13131 35.31912 L 45.077529999999996 11.206029999999998 L 52.77565 9.986819999999998 L 64.91492 31.382949999999997 L 57.55647 32.5498 L 55.823589999999996 28.988189999999996 z M 53.55061 24.30316 L 49.771229999999996 16.51804 L 48.57821 25.08697 z M 72.3865 61.75721 L 85.55339 59.6672 C 87.74785 59.31891 89.51562999999999 59.59752 90.86543999999999 60.4945 C 92.21525 61.391490000000005 93.01639999999999 62.64546 93.26893999999999 64.24770000000001 C 93.48668999999998 65.58881000000001 93.25147999999999 66.81660000000001 92.55480999999999 67.90518000000002 C 92.10194999999999 68.63662000000002 91.36178999999998 69.27233000000001 90.34289999999999 69.82103000000002 C 92.04099999999998 69.95166000000002 93.34719999999999 70.43929000000003 94.27034999999998 71.27532000000002 C 95.19336999999997 72.11135000000002 95.76813999999997 73.25215000000003 95.99463999999998 74.69771000000003 C 96.18622999999998 75.88200000000003 96.07304999999998 76.97931000000003 95.68114999999997 78.00678000000003 C 95.28051999999997 79.03440000000003 94.64484999999998 79.89647000000004 93.78272999999997 80.60187000000003 C 93.24287999999997 81.03727000000003 92.38938999999998 81.42917000000003 91.22255999999997 81.76872000000003 C 89.67254999999997 82.23031000000003 88.63619999999997 82.50016000000004 88.12238999999997 82.57857000000003 L 75.98311999999997 84.50303000000002 L 72.38659999999997 61.75717000000002 z M 80.89441 69.55978 L 83.95966999999999 69.07216 C 85.05695999999999 68.89802999999999 85.79713999999998 68.58453999999999 86.16286 68.14041 C 86.52857999999999 67.68755 86.65921 67.11279 86.54603999999999 66.39881 C 86.44158999999999 65.73701 86.14540999999998 65.24928 85.65777999999999 64.95325 C 85.17015999999998 64.64849 84.38635 64.5788 83.32395999999999 64.74419999999999 L 80.20647999999998 65.24055 L 80.89441999999998 69.55978 z M 82.31388 78.4857 L 85.90167 77.91967 C 87.11215 77.72807999999999 87.93073 77.37109 88.36612 76.86601 C 88.79279 76.36093 88.94960999999999 75.74267 88.83639 75.01981 C 88.73194 74.34933000000001 88.40099 73.84425 87.84367999999999 73.51329000000001 C 87.28636999999999 73.18234000000001 86.38938999999999 73.11266 85.15287 73.31297 L 81.58252999999999 73.879 L 82.31397 78.48569 z" stroke-linecap="round" />
</g>
</svg>