<svg xmlns="http://www.w3.org/2000/svg" shape-rendering="geometricPrecision" text-rendering="geometricPrecision" image-rendering="optimizeQuality" fill-rule="evenodd" clip-rule="evenodd" viewBox="0 0 476 511.93" preserveAspectRatio="xMaxYMax meet"><path fill="#F34135" d="M176.42 44.1c126.93-34.02 257.4 41.31 291.41 168.24 34.01 126.94-41.31 257.41-168.25 291.42-126.93 34.01-257.4-41.32-291.41-168.25C-25.84 208.58 49.48 78.11 176.42 44.1z"/><path fill="#333" d="M26.36 165.46C67 219.26 164.1 91.02 109.98 76.54 71.41 72.18 42.28 47.8 24.15 0 2.45 68.37.36 125.19 26.36 165.46zm423.28 0C409 219.26 311.9 91.02 366.02 76.54c38.57-4.36 67.7-28.74 85.83-76.54 21.7 68.37 23.79 125.19-2.21 165.46zM377 347.02c-64.2 108.77-201.76 112.78-278-.01 92.67 33.28 185.34 35.35 278 .01z"/><path fill="#fff" d="M142.64 360.35c10.98 2.77 21.97 5.08 32.95 6.93l-20.14 31.07-12.81-38zm82.05-99.64L70.22 193.86c1.85 8.91 3.96 17.47 6.4 25.62 23.82 79.59 95.33 113.66 148.07 41.23zm26.62 0 154.46-66.85c-1.84 8.91-3.96 17.47-6.39 25.62-23.83 79.59-95.33 113.66-148.07 41.23zm51.5 106.73c10.55-1.8 21.1-4.07 31.65-6.81l1.12-.28-18.13 42.2-14.64-35.11z"/><path d="m180.26 241.48-47.59-20.59a28.043 28.043 0 0 0-8.71 20.36c0 15.55 12.6 28.15 28.14 28.15 15.48 0 28.03-12.47 28.16-27.92zm115.48 0 47.59-20.59a28.043 28.043 0 0 1 8.71 20.36c0 15.55-12.6 28.15-28.15 28.15-15.47 0-28.02-12.47-28.15-27.92z"/></svg>