<svg id="Layer_1" data-name="Layer 1" xmlns="http://www.w3.org/2000/svg" viewBox="0 0 122.88 103.34"><defs><style>.cls-1{fill-rule:evenodd;}.cls-2{fill:#ff4141;}</style></defs><title>how</title><path class="cls-1" d="M11.56,0h99.76a11.59,11.59,0,0,1,11.56,11.56V64.65a11.59,11.59,0,0,1-11.56,11.56l-24.64,0a19.6,19.6,0,0,0,.68-2.26h0A24.15,24.15,0,0,0,87.84,71h21.74a7.69,7.69,0,0,0,7.66-7.66V13.29a7.69,7.69,0,0,0-7.66-7.66H12.42c-4.21,0-6.79,3.45-6.79,7.66V63.35A7.69,7.69,0,0,0,13.29,71h2.37a1.94,1.94,0,0,1,1.81,2.07L17.3,83,29.89,71.58A1.94,1.94,0,0,1,31.26,71h4.41l0,.11a22.74,22.74,0,0,0,2.13,4.95H33.26L15.71,91.3A1.94,1.94,0,0,1,13,91.08a1.91,1.91,0,0,1-.46-1.39L11.72,76.2h-.16A11.58,11.58,0,0,1,0,64.65V11.56A11.59,11.59,0,0,1,11.56,0Zm19,44.9c0,.3-.71.55-2.14.74a32.35,32.35,0,0,1-4.3.28,9.29,9.29,0,0,1-2.79-.25.82.82,0,0,1-.62-.77V23.19c0-.59.68-1.13,2.05-1.61a13.31,13.31,0,0,1,4.45-.72c2.23,0,3.35.53,3.35,1.59v7.76H33.7v-7c0-.59.69-1.13,2.07-1.61a13.41,13.41,0,0,1,4.46-.72c2.21,0,3.32.53,3.32,1.59V44.9c0,.3-.72.55-2.15.74a32.83,32.83,0,0,1-4.31.28,9.17,9.17,0,0,1-2.77-.25.82.82,0,0,1-.62-.77V36.81H30.56V44.9Zm26.51,1.34a20.09,20.09,0,0,1-4.56-.46,9.3,9.3,0,0,1-3.45-1.63q-3.23-2.32-3.22-8.68c0-3.76,1.1-6.46,3.29-8.08a13,13,0,0,1,7.94-2.26,27.76,27.76,0,0,1,3.56.19,12.08,12.08,0,0,1,3,.83,6.46,6.46,0,0,1,2.47,1.73,8.45,8.45,0,0,1,1.54,3,15.44,15.44,0,0,1,.6,4.57q0,5.37-3,8.07a11.81,11.81,0,0,1-8.15,2.7Zm-1.24-6.89a3.59,3.59,0,0,0,.51,1.52,1.13,1.13,0,0,0,1.42,0,3.39,3.39,0,0,0,.49-1.52,18.66,18.66,0,0,0,.23-3.19c0-1.28,0-2.27-.09-3a13.75,13.75,0,0,0-.21-1.61,2.34,2.34,0,0,0-.34-.88.9.9,0,0,0-.75-.46,1.05,1.05,0,0,0-.73.26,3.53,3.53,0,0,0-.53,1.55,21.27,21.27,0,0,0-.24,3.66,20.8,20.8,0,0,0,.24,3.63Zm41.34,5.72c-.31.57-1.9.85-4.79.85s-4.38-.28-4.5-.85l-1.2-6.42h-.49l-1.13,6.42q-.11.85-6.18.85a8.2,8.2,0,0,1-2.24-.19,1.26,1.26,0,0,1-.76-.66q-6.55-16.12-6.56-17c0-.56.85-1.14,2.56-1.74a14.76,14.76,0,0,1,4.92-.9c2,0,3.07.54,3.14,1.62l1.2,9.67h.43l.42-7.8c0-.59.62-1.1,1.8-1.55a9.89,9.89,0,0,1,3.56-.67,6.37,6.37,0,0,1,2.71.44q.9.43.93,1.08l.39,8.5h.39l1.16-9.07c.07-.56.87-1.08,2.38-1.53a14.11,14.11,0,0,1,4-.69,6.18,6.18,0,0,1,2.72.49c1.08.52,1.62,1.13,1.62,1.84q0,.11-3.19,8.61t-3.3,8.68Z"/><path class="cls-2" d="M47.18,73c-1.25,0-2.33-1.48-3.25-4.46A29.11,29.11,0,0,1,42.56,60c0-.63.69-1.33,2.07-2.11a23.43,23.43,0,0,1,6.3-2.08,44.14,44.14,0,0,1,9.19-.9q19.23,0,19.23,13.4A13.16,13.16,0,0,1,77.78,75,10.47,10.47,0,0,1,74,79a17.92,17.92,0,0,1-8.24,2.54l-1.55.07A13.6,13.6,0,0,0,64.54,84a14.22,14.22,0,0,1,.33,2.81c0,.72-1.21,1.26-3.65,1.64a41.73,41.73,0,0,1-6.33.57c-2.73,0-4.41-.67-5.06-2s-1-4.17-1-8.51q0-1.55,5.76-2.28a10.52,10.52,0,0,0,3.92-1.41,3.27,3.27,0,0,0,1.78-2.94c0-1.26-1-1.88-3-1.88A15,15,0,0,0,51,71.5,19.78,19.78,0,0,1,47.18,73ZM57.7,91.27a16.41,16.41,0,0,1,7,1.17q2.42,1.19,2.42,4.86,0,6-9.39,6t-9.38-6q0-6,9.38-6Z"/></svg>