<svg xmlns="http://www.w3.org/2000/svg" shape-rendering="geometricPrecision" text-rendering="geometricPrecision" image-rendering="optimizeQuality" fill-rule="evenodd" clip-rule="evenodd" viewBox="0 0 512 512"><path fill-rule="nonzero" d="M289.17 183.15 286.3 182c-9.31-3.54-19.46-5.49-30.11-5.49-23.34 0-44.49 9.47-59.78 24.76l-.79.73c-14.83 15.19-23.97 36.04-23.97 59.05 0 23.35 9.47 44.5 24.76 59.79 15.29 15.29 36.44 24.76 59.78 24.76 22.05 0 42.11-8.4 57.11-22.15l.89-.76c14.66-13.8 24.41-32.87 26.24-54.21.73-9.03 8.67-15.76 17.7-15.02 9.04.74 15.76 8.67 15.03 17.71-2.55 29.64-16.19 56.2-36.73 75.47l-.93.92c-20.91 19.18-48.78 30.89-79.31 30.89-32.4 0-61.76-13.15-83-34.39-21.23-21.24-34.39-50.6-34.39-83.01 0-31.89 12.79-60.87 33.52-82.06l.87-.94c21.24-21.24 50.6-34.39 83-34.39 14.68 0 28.77 2.73 41.78 7.68 1.78.68 3.54 1.39 5.28 2.16L298 138.95c-3.04-8.5 1.39-17.88 9.88-20.92 8.5-3.05 17.88 1.38 20.92 9.87l18.63 51.66c3.05 8.5-1.38 17.88-9.88 20.92l-54.21 19.56c-8.49 3.04-17.87-1.39-20.92-9.88-3.04-8.5 1.38-17.88 9.88-20.92l16.87-6.09zM256 0c70.67 0 134.68 28.66 181.01 74.98C483.33 121.31 512 185.32 512 256c0 70.61-28.68 134.62-75.02 180.98C390.68 483.33 326.68 512 256 512c-70.68 0-134.69-28.67-181.02-74.99C28.66 390.68 0 326.67 0 256c0-70.68 28.67-134.69 74.99-181.02C121.32 28.66 185.32 0 256 0zm157.37 98.62C373.11 58.35 317.45 33.44 256 33.44c-61.46 0-117.11 24.91-157.37 65.18C58.36 138.89 33.44 194.54 33.44 256c0 61.45 24.91 117.11 65.18 157.37 40.27 40.27 95.92 65.19 157.38 65.19 61.46 0 117.11-24.92 157.37-65.19 40.3-40.22 65.19-95.88 65.19-157.37 0-61.46-24.92-117.11-65.19-157.38z"/></svg>